<?xml version="1.0" standalone="no"?>
<!DOCTYPE svg PUBLIC "-//W3C//DTD SVG 20010904//EN"
 "http://www.w3.org/TR/2001/REC-SVG-20010904/DTD/svg10.dtd">
<svg version="1.0" xmlns="http://www.w3.org/2000/svg"
 width="2246.000000pt" height="861.000000pt" viewBox="0 0 2246.000000 861.000000"
 preserveAspectRatio="xMidYMid meet">
<metadata>
Created by potrace 1.16, written by Peter Selinger 2001-2019
</metadata>
<g transform="translate(0.000000,861.000000) scale(0.100000,-0.100000)"
fill="#000000" stroke="none">
<path d="M585 4890 c0 -1367 1 -1926 2 -1243 2 684 2 1802 0 2485 -1 684 -2
125 -2 -1242z"/>
<path d="M715 7228 c-3 -7 -4 -1079 -3 -2383 l3 -2370 3 2378 2 2377 1950 0
1950 0 0 -2417 c0 -1538 -4 -2442 -10 -2483 -6 -36 -12 -85 -15 -110 -4 -38
-2 -35 12 20 15 60 17 271 20 2533 l3 2467 -1955 0 c-1555 0 -1957 -3 -1960
-12z"/>
<path d="M925 4875 c0 -1188 1 -1673 2 -1077 2 596 2 1568 0 2160 -1 592 -2
105 -2 -1083z"/>
<path d="M2735 5985 c0 -577 1 -812 2 -522 2 291 2 763 0 1050 -1 287 -2 50
-2 -528z"/>
<path d="M4425 5990 c0 -575 1 -810 2 -522 2 287 2 757 0 1045 -1 287 -2 52
-2 -523z"/>
<path d="M4765 4795 c0 -1232 1 -1735 2 -1117 2 618 2 1626 0 2240 -1 614 -2
109 -2 -1123z"/>
<path d="M3163 4943 c229 -2 605 -2 835 0 229 1 41 2 -418 2 -459 0 -647 -1
-417 -2z"/>
<path d="M14367 4833 l7512 -3 4 -48 3 -47 2 53 2 52 -7517 -2 -7518 -3 7512
-2z"/>
<path d="M2732 3768 l3 -1053 2 1048 3 1047 840 0 840 0 3 -1047 2 -1048 3
1053 2 1052 -850 0 -850 0 2 -1052z"/>
<path d="M19587 4283 c-3 -5 251 -7 564 -5 l569 2 7 -27 c5 -16 8 -114 8 -220
0 -106 4 -188 9 -183 10 10 3 398 -8 423 -8 16 -45 17 -576 17 -313 0 -571 -3
-573 -7z"/>
<path d="M6844 4095 c14 -26 16 -119 16 -750 0 -631 -2 -724 -16 -750 -15 -29
-14 -29 3 -12 17 17 18 57 18 762 0 705 -1 745 -18 762 -17 17 -18 17 -3 -12z"/>
<path d="M13833 4108 c-10 -16 -17 -1175 -7 -1165 4 4 8 265 9 580 1 316 5
579 9 586 10 15 -1 14 -11 -1z"/>
<path d="M926 2495 c4 -53 10 -110 15 -128 9 -33 7 16 -7 151 l-6 62 1745 0
1746 0 4 -32 c4 -32 4 -32 5 5 l2 37 -1756 0 -1755 0 7 -95z"/>
</g>
</svg>
